<svg width="24" height="24" viewBox="0 0 24 24" fill="none" xmlns="http://www.w3.org/2000/svg">
<path d="M11.9991 0C12.6648 0 13.2789 0.401786 13.6164 1.06071L23.7422 20.775C24.0844 21.4393 24.0844 22.2589 23.7515 22.9232C23.4187 23.5875 22.7952 24 22.1249 24H1.8734C1.20304 24 0.579561 23.5875 0.246725 22.9232C-0.0861113 22.2589 -0.0814235 21.4339 0.256101 20.775L10.3818 1.06071C10.7193 0.401786 11.3335 0 11.9991 0ZM11.9991 6.85714C11.3756 6.85714 10.874 7.43036 10.874 8.14286V14.1429C10.874 14.8554 11.3756 15.4286 11.9991 15.4286C12.6226 15.4286 13.1242 14.8554 13.1242 14.1429V8.14286C13.1242 7.43036 12.6226 6.85714 11.9991 6.85714ZM13.4992 18.8571C13.4992 18.4025 13.3412 17.9665 13.0599 17.645C12.7785 17.3235 12.397 17.1429 11.9991 17.1429C11.6013 17.1429 11.2197 17.3235 10.9384 17.645C10.6571 17.9665 10.499 18.4025 10.499 18.8571C10.499 19.3118 10.6571 19.7478 10.9384 20.0693C11.2197 20.3908 11.6013 20.5714 11.9991 20.5714C12.397 20.5714 12.7785 20.3908 13.0599 20.0693C13.3412 19.7478 13.4992 19.3118 13.4992 18.8571Z" fill="#007BFF"/>
</svg>
