<svg width="18" height="18" viewBox="0 0 18 18" fill="none" xmlns="http://www.w3.org/2000/svg">
<path d="M14.625 7.31104C14.625 8.92471 14.1012 10.4153 13.2188 11.6247L17.6695 16.079C18.109 16.5185 18.109 17.2321 17.6695 17.6716C17.2301 18.111 16.5164 18.111 16.077 17.6716L11.6262 13.2173C10.4168 14.1032 8.92617 14.6235 7.3125 14.6235C3.27305 14.6235 0 11.3505 0 7.31104C0 3.27158 3.27305 -0.00146484 7.3125 -0.00146484C11.352 -0.00146484 14.625 3.27158 14.625 7.31104ZM7.3125 12.3735C7.97732 12.3735 8.63562 12.2426 9.24984 11.9882C9.86405 11.7338 10.4221 11.3609 10.8922 10.8908C11.3623 10.4207 11.7352 9.86258 11.9896 9.24837C12.2441 8.63416 12.375 7.97585 12.375 7.31104C12.375 6.64622 12.2441 5.98791 11.9896 5.3737C11.7352 4.75949 11.3623 4.2014 10.8922 3.73131C10.4221 3.26121 9.86405 2.88831 9.24984 2.6339C8.63562 2.37948 7.97732 2.24854 7.3125 2.24854C6.64768 2.24854 5.98938 2.37948 5.37516 2.6339C4.76095 2.88831 4.20287 3.26121 3.73277 3.73131C3.26268 4.2014 2.88977 4.75949 2.63536 5.3737C2.38095 5.98791 2.25 6.64622 2.25 7.31104C2.25 7.97585 2.38095 8.63416 2.63536 9.24837C2.88977 9.86258 3.26268 10.4207 3.73277 10.8908C4.20287 11.3609 4.76095 11.7338 5.37516 11.9882C5.98938 12.2426 6.64768 12.3735 7.3125 12.3735Z" fill="white"/>
</svg>
