<svg width="20" height="20" viewBox="0 0 20 20" fill="none" xmlns="http://www.w3.org/2000/svg">
<path d="M9.10264 3.48326C9.46948 2.74009 10.5292 2.74009 10.8961 3.48326L12.3419 6.41238C12.4874 6.70723 12.7686 6.91169 13.094 6.95924L16.3289 7.43208C17.1488 7.55192 17.4756 8.55976 16.882 9.13792L14.5428 11.4163C14.3069 11.646 14.1993 11.9772 14.2549 12.3017L14.8068 15.5193C14.9469 16.3362 14.0893 16.9592 13.3557 16.5734L10.4648 15.0531C10.1734 14.8998 9.82528 14.8998 9.5339 15.0531L6.64298 16.5734C5.90935 16.9592 5.0518 16.3362 5.19192 15.5193L5.74377 12.3017C5.79943 11.9772 5.69177 11.646 5.45589 11.4163L3.1167 9.13792C2.5231 8.55976 2.84988 7.55192 3.6698 7.43208L6.90472 6.95924C7.23007 6.91169 7.51125 6.70723 7.65679 6.41238L9.10264 3.48326Z" fill="#FFB800"/>
</svg>
