<svg width="136" height="38" viewBox="0 0 136 38" fill="none" xmlns="http://www.w3.org/2000/svg">
<rect width="38" height="38" rx="10" fill="white"/>
<path d="M14.6652 10.1652L12.4152 12.4152C12.2535 12.577 12.2078 12.8195 12.2922 13.027C12.3766 13.2344 12.584 13.375 12.8125 13.375H17.3125C17.541 13.375 17.7449 13.2379 17.8328 13.027C17.9207 12.816 17.8715 12.5734 17.7098 12.4152L15.4598 10.1652C15.2418 9.94727 14.8832 9.94727 14.6652 10.1652ZM12.25 14.5C11.009 14.5 10 15.509 10 16.75V25.75C10 26.991 11.009 28 12.25 28H25.75C26.991 28 28 26.991 28 25.75V16.75C28 15.509 26.991 14.5 25.75 14.5H12.25ZM15.625 17.875C16.0726 17.875 16.5018 18.0528 16.8182 18.3693C17.1347 18.6857 17.3125 19.1149 17.3125 19.5625C17.3125 20.0101 17.1347 20.4393 16.8182 20.7557C16.5018 21.0722 16.0726 21.25 15.625 21.25C15.1774 21.25 14.7482 21.0722 14.4318 20.7557C14.1153 20.4393 13.9375 20.0101 13.9375 19.5625C13.9375 19.1149 14.1153 18.6857 14.4318 18.3693C14.7482 18.0528 15.1774 17.875 15.625 17.875ZM12.8125 24.0625C12.8125 23.1309 13.5684 22.375 14.5 22.375H16.75C17.6816 22.375 18.4375 23.1309 18.4375 24.0625V24.625C18.4375 25.2473 17.9348 25.75 17.3125 25.75H13.9375C13.3152 25.75 12.8125 25.2473 12.8125 24.625V24.0625ZM19.5625 24.0625C19.5625 23.1309 20.3184 22.375 21.25 22.375H23.5C24.4316 22.375 25.1875 23.1309 25.1875 24.0625V24.625C25.1875 25.2473 24.6848 25.75 24.0625 25.75H20.6875C20.0652 25.75 19.5625 25.2473 19.5625 24.625V24.0625ZM20.6875 19.5625C20.6875 19.3409 20.7311 19.1215 20.816 18.9167C20.9008 18.712 21.0251 18.526 21.1818 18.3693C21.3385 18.2126 21.5245 18.0883 21.7292 18.0035C21.934 17.9186 22.1534 17.875 22.375 17.875C22.5966 17.875 22.816 17.9186 23.0208 18.0035C23.2255 18.0883 23.4115 18.2126 23.5682 18.3693C23.7249 18.526 23.8492 18.712 23.934 18.9167C24.0189 19.1215 24.0625 19.3409 24.0625 19.5625C24.0625 19.7841 24.0189 20.0035 23.934 20.2083C23.8492 20.413 23.7249 20.599 23.5682 20.7557C23.4115 20.9124 23.2255 21.0367 23.0208 21.1215C22.816 21.2064 22.5966 21.25 22.375 21.25C22.1534 21.25 21.934 21.2064 21.7292 21.1215C21.5245 21.0367 21.3385 20.9124 21.1818 20.7557C21.0251 20.599 20.9008 20.413 20.816 20.2083C20.7311 20.0035 20.6875 19.7841 20.6875 19.5625ZM22.5402 13.2098C22.7582 13.4277 23.1168 13.4277 23.3348 13.2098L25.5848 10.9598C25.7465 10.798 25.7922 10.5555 25.7078 10.348C25.6234 10.1406 25.416 10 25.1875 10H20.6875C20.459 10 20.2551 10.1371 20.1672 10.348C20.0793 10.559 20.1285 10.8016 20.2902 10.9598L22.5402 13.2098Z" fill="#007BFF"/>
<path d="M51.136 17.684H59.488V20.252H51.136V17.684ZM51.376 24.884H60.856V27.5H48.256V10.7H60.52V13.316H51.376V24.884ZM69.3529 27.668C68.1209 27.668 67.0089 27.396 66.0169 26.852C65.0409 26.292 64.2729 25.524 63.7129 24.548C63.1529 23.572 62.8729 22.42 62.8729 21.092C62.8729 19.764 63.1529 18.612 63.7129 17.636C64.2729 16.66 65.0409 15.9 66.0169 15.356C67.0089 14.812 68.1209 14.54 69.3529 14.54C70.4249 14.54 71.3849 14.78 72.2329 15.26C73.0809 15.724 73.7529 16.436 74.2489 17.396C74.7449 18.356 74.9929 19.588 74.9929 21.092C74.9929 22.58 74.7529 23.812 74.2729 24.788C73.7929 25.748 73.1289 26.468 72.2809 26.948C71.4329 27.428 70.4569 27.668 69.3529 27.668ZM69.7129 25.1C70.4329 25.1 71.0729 24.94 71.6329 24.62C72.2089 24.3 72.6649 23.836 73.0009 23.228C73.3529 22.62 73.5289 21.908 73.5289 21.092C73.5289 20.26 73.3529 19.548 73.0009 18.956C72.6649 18.348 72.2089 17.884 71.6329 17.564C71.0729 17.244 70.4329 17.084 69.7129 17.084C68.9929 17.084 68.3449 17.244 67.7689 17.564C67.2089 17.884 66.7529 18.348 66.4009 18.956C66.0649 19.548 65.8969 20.26 65.8969 21.092C65.8969 21.908 66.0649 22.62 66.4009 23.228C66.7529 23.836 67.2089 24.3 67.7689 24.62C68.3449 24.94 68.9929 25.1 69.7129 25.1ZM73.6009 27.5V24.476L73.7209 21.068L73.4809 17.66V9.692H76.4569V27.5H73.6009ZM85.8295 27.668C84.7415 27.668 83.7815 27.468 82.9495 27.068C82.1175 26.652 81.4695 26.028 81.0055 25.196C80.5415 24.348 80.3095 23.284 80.3095 22.004V14.684H83.3095V21.596C83.3095 22.748 83.5655 23.612 84.0775 24.188C84.6055 24.748 85.3495 25.028 86.3095 25.028C87.0135 25.028 87.6215 24.884 88.1335 24.596C88.6615 24.308 89.0695 23.876 89.3575 23.3C89.6615 22.724 89.8135 22.012 89.8135 21.164V14.684H92.8135V27.5H89.9575V24.044L90.4615 25.1C90.0295 25.932 89.3975 26.572 88.5655 27.02C87.7335 27.452 86.8215 27.668 85.8295 27.668ZM97.0294 27.5V10.7H100.149V24.86H108.933V27.5H97.0294ZM111.109 27.5V14.684H114.109V27.5H111.109ZM112.621 12.572C112.061 12.572 111.597 12.396 111.229 12.044C110.877 11.692 110.701 11.268 110.701 10.772C110.701 10.26 110.877 9.836 111.229 9.5C111.597 9.148 112.061 8.972 112.621 8.972C113.181 8.972 113.637 9.14 113.989 9.476C114.357 9.796 114.541 10.204 114.541 10.7C114.541 11.228 114.365 11.676 114.013 12.044C113.661 12.396 113.197 12.572 112.621 12.572ZM118.454 27.5V13.964C118.454 12.62 118.846 11.548 119.63 10.748C120.43 9.932 121.566 9.524 123.038 9.524C123.566 9.524 124.062 9.58 124.526 9.692C125.006 9.804 125.406 9.98 125.726 10.22L124.91 12.476C124.686 12.3 124.43 12.172 124.142 12.092C123.854 11.996 123.558 11.948 123.254 11.948C122.63 11.948 122.158 12.124 121.838 12.476C121.518 12.812 121.358 13.324 121.358 14.012V15.452L121.454 16.796V27.5H118.454ZM116.342 17.18V14.78H124.886V17.18H116.342ZM131.73 27.668C130.322 27.668 129.234 27.308 128.465 26.588C127.698 25.852 127.314 24.772 127.314 23.348V11.852H130.314V23.276C130.314 23.884 130.466 24.356 130.77 24.692C131.09 25.028 131.53 25.196 132.09 25.196C132.762 25.196 133.322 25.02 133.77 24.668L134.61 26.804C134.258 27.092 133.826 27.308 133.314 27.452C132.802 27.596 132.274 27.668 131.73 27.668ZM125.202 17.18V14.78H133.746V17.18H125.202Z" fill="white"/>
</svg>
