<svg width="136" height="39" viewBox="0 0 136 39" fill="none" xmlns="http://www.w3.org/2000/svg">
<rect y="0.5" width="38" height="38" rx="10" fill="#007BFF"/>
<path d="M14.6652 10.6652L12.4152 12.9152C12.2535 13.077 12.2078 13.3195 12.2922 13.527C12.3766 13.7344 12.584 13.875 12.8125 13.875H17.3125C17.541 13.875 17.7449 13.7379 17.8328 13.527C17.9207 13.316 17.8715 13.0734 17.7098 12.9152L15.4598 10.6652C15.2418 10.4473 14.8832 10.4473 14.6652 10.6652ZM12.25 15C11.009 15 10 16.009 10 17.25V26.25C10 27.491 11.009 28.5 12.25 28.5H25.75C26.991 28.5 28 27.491 28 26.25V17.25C28 16.009 26.991 15 25.75 15H12.25ZM15.625 18.375C16.0726 18.375 16.5018 18.5528 16.8182 18.8693C17.1347 19.1857 17.3125 19.6149 17.3125 20.0625C17.3125 20.5101 17.1347 20.9393 16.8182 21.2557C16.5018 21.5722 16.0726 21.75 15.625 21.75C15.1774 21.75 14.7482 21.5722 14.4318 21.2557C14.1153 20.9393 13.9375 20.5101 13.9375 20.0625C13.9375 19.6149 14.1153 19.1857 14.4318 18.8693C14.7482 18.5528 15.1774 18.375 15.625 18.375ZM12.8125 24.5625C12.8125 23.6309 13.5684 22.875 14.5 22.875H16.75C17.6816 22.875 18.4375 23.6309 18.4375 24.5625V25.125C18.4375 25.7473 17.9348 26.25 17.3125 26.25H13.9375C13.3152 26.25 12.8125 25.7473 12.8125 25.125V24.5625ZM19.5625 24.5625C19.5625 23.6309 20.3184 22.875 21.25 22.875H23.5C24.4316 22.875 25.1875 23.6309 25.1875 24.5625V25.125C25.1875 25.7473 24.6848 26.25 24.0625 26.25H20.6875C20.0652 26.25 19.5625 25.7473 19.5625 25.125V24.5625ZM20.6875 20.0625C20.6875 19.8409 20.7311 19.6215 20.816 19.4167C20.9008 19.212 21.0251 19.026 21.1818 18.8693C21.3385 18.7126 21.5245 18.5883 21.7292 18.5035C21.934 18.4186 22.1534 18.375 22.375 18.375C22.5966 18.375 22.816 18.4186 23.0208 18.5035C23.2255 18.5883 23.4115 18.7126 23.5682 18.8693C23.7249 19.026 23.8492 19.212 23.934 19.4167C24.0189 19.6215 24.0625 19.8409 24.0625 20.0625C24.0625 20.2841 24.0189 20.5035 23.934 20.7083C23.8492 20.913 23.7249 21.099 23.5682 21.2557C23.4115 21.4124 23.2255 21.5367 23.0208 21.6215C22.816 21.7064 22.5966 21.75 22.375 21.75C22.1534 21.75 21.934 21.7064 21.7292 21.6215C21.5245 21.5367 21.3385 21.4124 21.1818 21.2557C21.0251 21.099 20.9008 20.913 20.816 20.7083C20.7311 20.5035 20.6875 20.2841 20.6875 20.0625ZM22.5402 13.7098C22.7582 13.9277 23.1168 13.9277 23.3348 13.7098L25.5848 11.4598C25.7465 11.298 25.7922 11.0555 25.7078 10.848C25.6234 10.6406 25.416 10.5 25.1875 10.5H20.6875C20.459 10.5 20.2551 10.6371 20.1672 10.848C20.0793 11.059 20.1285 11.3016 20.2902 11.4598L22.5402 13.7098Z" fill="white"/>
<path d="M51.136 18.184H59.488V20.752H51.136V18.184ZM51.376 25.384H60.856V28H48.256V11.2H60.52V13.816H51.376V25.384ZM69.3529 28.168C68.1209 28.168 67.0089 27.896 66.0169 27.352C65.0409 26.792 64.2729 26.024 63.7129 25.048C63.1529 24.072 62.8729 22.92 62.8729 21.592C62.8729 20.264 63.1529 19.112 63.7129 18.136C64.2729 17.16 65.0409 16.4 66.0169 15.856C67.0089 15.312 68.1209 15.04 69.3529 15.04C70.4249 15.04 71.3849 15.28 72.2329 15.76C73.0809 16.224 73.7529 16.936 74.2489 17.896C74.7449 18.856 74.9929 20.088 74.9929 21.592C74.9929 23.08 74.7529 24.312 74.2729 25.288C73.7929 26.248 73.1289 26.968 72.2809 27.448C71.4329 27.928 70.4569 28.168 69.3529 28.168ZM69.7129 25.6C70.4329 25.6 71.0729 25.44 71.6329 25.12C72.2089 24.8 72.6649 24.336 73.0009 23.728C73.3529 23.12 73.5289 22.408 73.5289 21.592C73.5289 20.76 73.3529 20.048 73.0009 19.456C72.6649 18.848 72.2089 18.384 71.6329 18.064C71.0729 17.744 70.4329 17.584 69.7129 17.584C68.9929 17.584 68.3449 17.744 67.7689 18.064C67.2089 18.384 66.7529 18.848 66.4009 19.456C66.0649 20.048 65.8969 20.76 65.8969 21.592C65.8969 22.408 66.0649 23.12 66.4009 23.728C66.7529 24.336 67.2089 24.8 67.7689 25.12C68.3449 25.44 68.9929 25.6 69.7129 25.6ZM73.6009 28V24.976L73.7209 21.568L73.4809 18.16V10.192H76.4569V28H73.6009ZM85.8295 28.168C84.7415 28.168 83.7815 27.968 82.9495 27.568C82.1175 27.152 81.4695 26.528 81.0055 25.696C80.5415 24.848 80.3095 23.784 80.3095 22.504V15.184H83.3095V22.096C83.3095 23.248 83.5655 24.112 84.0775 24.688C84.6055 25.248 85.3495 25.528 86.3095 25.528C87.0135 25.528 87.6215 25.384 88.1335 25.096C88.6615 24.808 89.0695 24.376 89.3575 23.8C89.6615 23.224 89.8135 22.512 89.8135 21.664V15.184H92.8135V28H89.9575V24.544L90.4615 25.6C90.0295 26.432 89.3975 27.072 88.5655 27.52C87.7335 27.952 86.8215 28.168 85.8295 28.168ZM97.0294 28V11.2H100.149V25.36H108.933V28H97.0294ZM111.109 28V15.184H114.109V28H111.109ZM112.621 13.072C112.061 13.072 111.597 12.896 111.229 12.544C110.877 12.192 110.701 11.768 110.701 11.272C110.701 10.76 110.877 10.336 111.229 10C111.597 9.648 112.061 9.472 112.621 9.472C113.181 9.472 113.637 9.64 113.989 9.976C114.357 10.296 114.541 10.704 114.541 11.2C114.541 11.728 114.365 12.176 114.013 12.544C113.661 12.896 113.197 13.072 112.621 13.072ZM118.454 28V14.464C118.454 13.12 118.846 12.048 119.63 11.248C120.43 10.432 121.566 10.024 123.038 10.024C123.566 10.024 124.062 10.08 124.526 10.192C125.006 10.304 125.406 10.48 125.726 10.72L124.91 12.976C124.686 12.8 124.43 12.672 124.142 12.592C123.854 12.496 123.558 12.448 123.254 12.448C122.63 12.448 122.158 12.624 121.838 12.976C121.518 13.312 121.358 13.824 121.358 14.512V15.952L121.454 17.296V28H118.454ZM116.342 17.68V15.28H124.886V17.68H116.342ZM131.73 28.168C130.322 28.168 129.234 27.808 128.465 27.088C127.698 26.352 127.314 25.272 127.314 23.848V12.352H130.314V23.776C130.314 24.384 130.466 24.856 130.77 25.192C131.09 25.528 131.53 25.696 132.09 25.696C132.762 25.696 133.322 25.52 133.77 25.168L134.61 27.304C134.258 27.592 133.826 27.808 133.314 27.952C132.802 28.096 132.274 28.168 131.73 28.168ZM125.202 17.68V15.28H133.746V17.68H125.202Z" fill="#333333"/>
</svg>
